<svg id="visual" viewBox="0 0 960 540" width="960" height="540" xmlns="http://www.w3.org/2000/svg" xmlns:xlink="http://www.w3.org/1999/xlink" version="1.1"><path d="M0 217L32 199C64 181 128 145 192 130.7C256 116.3 320 123.7 384 139.8C448 156 512 181 576 178.2C640 175.3 704 144.7 768 122.2C832 99.7 896 85.3 928 78.2L960 71L960 0L928 0C896 0 832 0 768 0C704 0 640 0 576 0C512 0 448 0 384 0C320 0 256 0 192 0C128 0 64 0 32 0L0 0Z" fill="#26007e"></path><path d="M0 293L32 276.7C64 260.3 128 227.7 192 206C256 184.3 320 173.7 384 191.7C448 209.7 512 256.3 576 264.5C640 272.7 704 242.3 768 220.8C832 199.3 896 186.7 928 180.3L960 174L960 69L928 76.2C896 83.3 832 97.7 768 120.2C704 142.7 640 173.3 576 176.2C512 179 448 154 384 137.8C320 121.7 256 114.3 192 128.7C128 143 64 179 32 197L0 215Z" fill="#120d69"></path><path d="M0 320L32 311.8C64 303.7 128 287.3 192 269.3C256 251.3 320 231.7 384 239.8C448 248 512 284 576 292C640 300 704 280 768 261C832 242 896 224 928 215L960 206L960 172L928 178.3C896 184.7 832 197.3 768 218.8C704 240.3 640 270.7 576 262.5C512 254.3 448 207.7 384 189.7C320 171.7 256 182.3 192 204C128 225.7 64 258.3 32 274.7L0 291Z" fill="#051053"></path><path d="M0 401L32 385.7C64 370.3 128 339.7 192 329.7C256 319.7 320 330.3 384 358.2C448 386 512 431 576 426.5C640 422 704 368 768 329.3C832 290.7 896 267.3 928 255.7L960 244L960 204L928 213C896 222 832 240 768 259C704 278 640 298 576 290C512 282 448 246 384 237.8C320 229.7 256 249.3 192 267.3C128 285.3 64 301.7 32 309.8L0 318Z" fill="#050f3d"></path><path d="M0 476L32 455.3C64 434.7 128 393.3 192 384.3C256 375.3 320 398.7 384 422C448 445.3 512 468.7 576 460.7C640 452.7 704 413.3 768 388.2C832 363 896 352 928 346.5L960 341L960 242L928 253.7C896 265.3 832 288.7 768 327.3C704 366 640 420 576 424.5C512 429 448 384 384 356.2C320 328.3 256 317.7 192 327.7C128 337.7 64 368.3 32 383.7L0 399Z" fill="#090826"></path><path d="M0 541L32 541C64 541 128 541 192 541C256 541 320 541 384 541C448 541 512 541 576 541C640 541 704 541 768 541C832 541 896 541 928 541L960 541L960 339L928 344.5C896 350 832 361 768 386.2C704 411.3 640 450.7 576 458.7C512 466.7 448 443.3 384 420C320 396.7 256 373.3 192 382.3C128 391.3 64 432.7 32 453.3L0 474Z" fill="#00000e"></path></svg>